<svg width="731" height="467" viewBox="0 0 731 467" fill="none" xmlns="http://www.w3.org/2000/svg">
<g clip-path="url(#clip0_1796_636)">
<rect width="731" height="467" fill="black"/>
<g clip-path="url(#clip1_1796_636)">
<rect width="339" height="602.968" transform="translate(392 -67)" fill="white"/>
<rect x="392" y="-67" width="339" height="602.968" fill="black"/>
<g opacity="0.15">
<path d="M712.206 234.485V196.686M712.206 234.485H674.407M712.206 234.485H742.265M409.818 234.485V196.686M409.818 234.485H447.616M409.818 234.485H374.823M409.818 83.2907H712.206M409.818 83.2907V121.089M409.818 83.2907V45.4922M409.818 83.2907H374.823M712.206 83.2907V121.089M712.206 83.2907V45.4922M712.206 83.2907H742.265M712.206 7.69368H409.818M712.206 7.69368V45.4922M712.206 7.69368V-30.1048M712.206 7.69368H742.265M409.818 7.69368V45.4922M409.818 7.69368V-30.1048M409.818 7.69368H374.823M409.818 158.888H712.206M409.818 158.888V196.686M409.818 158.888V121.089M409.818 158.888H374.823M712.206 158.888V196.686M712.206 158.888V121.089M712.206 158.888H742.265M712.206 196.686H409.818M712.206 196.686H742.265M409.818 196.686H374.823M409.818 121.089H712.206M409.818 121.089H374.823M712.206 121.089H742.265M712.206 45.4922H409.818M712.206 45.4922H742.265M409.818 45.4922H374.823M409.818 -30.1048V-67.9033H447.616M409.818 -30.1048H712.206M409.818 -30.1048H374.823M712.206 -30.1048V-67.9033H674.407M712.206 -30.1048H742.265M561.012 -67.9033V234.485M561.012 -67.9033H523.213M561.012 -67.9033H598.81M561.012 234.485H523.213M561.012 234.485H598.81M636.609 234.485V-67.9033M636.609 234.485H598.81M636.609 234.485H674.407M636.609 -67.9033H598.81M636.609 -67.9033H674.407M485.415 -67.9033V234.485M485.415 -67.9033H447.616M485.415 -67.9033H523.213M485.415 234.485H447.616M485.415 234.485H523.213M447.616 234.485V-67.9033M523.213 234.485V-67.9033M598.81 -67.9033V234.485M674.407 234.485V-67.9033" stroke="white" stroke-width="0.904"/>
<path d="M712.206 536.873V499.075M712.206 536.873H674.407M712.206 536.873H742.265M409.818 536.873V499.075M409.818 536.873H447.616M409.818 536.873H374.823M409.818 385.679H712.206M409.818 385.679V423.478M409.818 385.679V347.881M409.818 385.679H374.823M712.206 385.679V423.478M712.206 385.679V347.881M712.206 385.679H742.265M712.206 310.082H409.818M712.206 310.082V347.881M712.206 310.082V272.284M712.206 310.082H742.265M409.818 310.082V347.881M409.818 310.082V272.284M409.818 310.082H374.823M409.818 461.276H712.206M409.818 461.276V499.075M409.818 461.276V423.478M409.818 461.276H374.823M712.206 461.276V499.075M712.206 461.276V423.478M712.206 461.276H742.265M712.206 499.075H409.818M712.206 499.075H742.265M409.818 499.075H374.823M409.818 423.478H712.206M409.818 423.478H374.823M712.206 423.478H742.265M712.206 347.881H409.818M712.206 347.881H742.265M409.818 347.881H374.823M409.818 272.284V234.485H447.616M409.818 272.284H712.206M409.818 272.284H374.823M712.206 272.284V234.485H674.407M712.206 272.284H742.265M561.012 234.485V536.873M561.012 234.485H523.213M561.012 234.485H598.81M561.012 536.873H523.213M561.012 536.873H598.81M636.609 536.873V234.485M636.609 536.873H598.81M636.609 536.873H674.407M636.609 234.485H598.81M636.609 234.485H674.407M485.415 234.485V536.873M485.415 234.485H447.616M485.415 234.485H523.213M485.415 536.873H447.616M485.415 536.873H523.213M447.616 536.873V234.485M523.213 536.873V234.485M598.81 234.485V536.873M674.407 536.873V234.485" stroke="white" stroke-width="0.904"/>
</g>
<g opacity="0.15">
<rect x="485.577" y="159.116" width="37.346" height="37.346" fill="white"/>
<rect x="409.939" y="159.116" width="37.346" height="37.346" fill="white"/>
<rect x="561.215" y="159.116" width="37.346" height="37.346" fill="white"/>
<rect x="523.396" y="196.936" width="37.346" height="37.346" fill="white"/>
<rect x="447.758" y="196.936" width="37.346" height="37.346" fill="white"/>
<rect x="485.577" y="234.755" width="37.346" height="37.346" fill="white"/>
<rect x="409.939" y="234.755" width="37.346" height="37.346" fill="white"/>
<rect x="561.215" y="234.755" width="37.346" height="37.346" fill="white"/>
<rect x="523.396" y="272.572" width="37.346" height="37.346" fill="white"/>
<rect x="447.758" y="272.572" width="37.346" height="37.346" fill="white"/>
<rect x="485.577" y="310.392" width="37.346" height="37.346" fill="white"/>
<rect x="409.939" y="310.392" width="37.346" height="37.346" fill="white"/>
<rect x="561.215" y="310.392" width="37.346" height="37.346" fill="white"/>
<rect x="523.396" y="348.21" width="37.346" height="37.346" fill="white"/>
<rect x="447.758" y="348.21" width="37.346" height="37.346" fill="white"/>
<rect x="485.577" y="83.4795" width="37.346" height="37.346" fill="white"/>
<rect x="409.939" y="83.4795" width="37.346" height="37.346" fill="white"/>
<rect x="561.215" y="83.4795" width="37.346" height="37.346" fill="white"/>
<g filter="url(#filter0_d_1796_636)">
<rect x="636.852" y="83.4795" width="37.346" height="37.346" fill="white"/>
</g>
<rect x="523.396" y="121.298" width="37.346" height="37.346" fill="white"/>
<rect x="447.758" y="121.298" width="37.346" height="37.346" fill="white"/>
<rect x="599.033" y="121.298" width="37.346" height="37.346" fill="white"/>
<rect x="674.67" y="121.298" width="37.346" height="37.346" fill="white"/>
<rect x="636.852" y="159.116" width="37.346" height="37.346" fill="white"/>
<rect x="599.033" y="196.936" width="37.346" height="37.346" fill="white"/>
<rect x="674.67" y="196.936" width="37.346" height="37.346" fill="white"/>
<rect x="636.852" y="234.755" width="37.346" height="37.346" fill="white"/>
<rect x="599.033" y="272.572" width="37.346" height="37.346" fill="white"/>
<rect x="674.67" y="272.572" width="37.346" height="37.346" fill="white"/>
<rect x="636.852" y="310.392" width="37.346" height="37.346" fill="white"/>
<rect x="599.033" y="348.21" width="37.346" height="37.346" fill="white"/>
<rect x="674.67" y="348.21" width="37.346" height="37.346" fill="white"/>
</g>
<path opacity="0.5" d="M441.71 78.1763C441.71 77.5807 442.133 77.2696 442.901 77.1505L443.801 77.0115V76.846C443.801 76.4555 443.53 76.1511 442.974 76.1511C442.445 76.1511 442.153 76.4555 442.153 76.9321C442.153 76.9652 442.16 76.9982 442.16 77.038L441.736 77.0049C441.69 76.1842 442.279 75.7606 442.961 75.7606C443.795 75.7606 444.225 76.1974 444.225 76.8791V79.0234H443.808V78.58C443.616 78.8911 443.298 79.1161 442.809 79.1161C442.028 79.1161 441.71 78.6263 441.71 78.1763ZM442.133 78.1498C442.133 78.5006 442.425 78.719 442.888 78.719C443.417 78.719 443.801 78.302 443.801 77.6601V77.3953L442.967 77.5343C442.537 77.6005 442.133 77.7593 442.133 78.1498Z" fill="white"/>
<path opacity="0.5" d="M479.804 79.0234H479.374V74.3906H479.804V76.4092C480.056 76.0187 480.472 75.7672 481.015 75.7672C481.902 75.7672 482.524 76.5085 482.524 77.4483C482.524 78.3881 481.902 79.1227 481.015 79.1227C480.472 79.1227 480.056 78.8712 479.804 78.4874V79.0234ZM479.804 77.4483C479.804 78.1829 480.281 78.7058 480.949 78.7058C481.624 78.7058 482.094 78.1763 482.094 77.4483C482.094 76.7203 481.617 76.1776 480.949 76.1776C480.281 76.1776 479.804 76.7203 479.804 77.4483Z" fill="white"/>
<path opacity="0.5" d="M517.165 77.4483C517.165 76.4953 517.774 75.7672 518.707 75.7672C519.422 75.7672 519.931 76.1908 520.064 76.8262L519.647 76.9387C519.574 76.4886 519.223 76.1776 518.707 76.1776C518.045 76.1776 517.595 76.7203 517.595 77.3887C517.595 78.1697 518.058 78.7124 518.747 78.7124C519.296 78.7124 519.753 78.3418 519.806 77.7792L520.223 77.8719C520.137 78.6065 519.521 79.1227 518.753 79.1227C517.794 79.1227 517.165 78.4146 517.165 77.4483Z" fill="white"/>
<path opacity="0.5" d="M554.812 77.4483C554.812 76.5085 555.428 75.7672 556.321 75.7672C556.864 75.7672 557.281 76.0187 557.532 76.4092V74.3906H557.962V79.0234H557.532V78.4874C557.281 78.8712 556.864 79.1227 556.321 79.1227C555.428 79.1227 554.812 78.3881 554.812 77.4483ZM555.242 77.4483C555.242 78.1763 555.712 78.7124 556.387 78.7124C557.056 78.7124 557.532 78.1829 557.532 77.4483C557.532 76.7137 557.056 76.1776 556.387 76.1776C555.719 76.1776 555.242 76.7137 555.242 77.4483Z" fill="white"/>
<path opacity="0.5" d="M592.789 77.4483C592.789 76.4953 593.398 75.7672 594.324 75.7672C595.178 75.7672 595.727 76.3695 595.727 77.2233V77.4615H593.206C593.239 78.216 593.702 78.7256 594.371 78.7256C594.9 78.7256 595.324 78.3815 595.396 77.8454L595.82 77.9182C595.727 78.6263 595.132 79.1227 594.371 79.1227C593.417 79.1227 592.789 78.4146 592.789 77.4483ZM593.239 77.0777H595.297C595.29 76.5548 594.907 76.1577 594.324 76.1577C593.768 76.1577 593.351 76.5482 593.239 77.0777Z" fill="white"/>
<path opacity="0.5" d="M631.317 76.2636H630.682V75.8665H631.317V75.5025C631.317 74.8076 631.787 74.2914 632.482 74.2914C633.078 74.2914 633.521 74.6752 633.541 75.2775L633.124 75.3635C633.13 74.9598 632.886 74.6951 632.482 74.6951C632.045 74.6951 631.747 75.0128 631.747 75.4959V75.8665H633.494V76.2636H631.747V79.0234H631.317V76.2636Z" fill="white"/>
<path opacity="0.5" d="M668.313 79.2154L668.744 79.1624C668.724 79.7779 669.16 80.2081 669.769 80.2081C670.464 80.2081 670.941 79.7184 670.941 78.9374V78.2888C670.709 78.6594 670.325 78.8977 669.822 78.8977C668.942 78.8977 668.327 78.216 668.327 77.3358C668.327 76.4688 668.942 75.7672 669.822 75.7672C670.325 75.7739 670.709 76.0187 670.941 76.3894V75.8665H671.371V78.9308C671.371 79.9037 670.722 80.6052 669.769 80.6052C668.949 80.6052 668.293 80.0757 668.313 79.2154ZM668.757 77.3358C668.757 77.9976 669.2 78.494 669.849 78.494C670.491 78.494 670.941 78.0042 670.941 77.3358C670.941 76.6739 670.491 76.1842 669.849 76.1842C669.207 76.1842 668.757 76.6739 668.757 77.3358Z" fill="white"/>
<path opacity="0.5" d="M706.88 79.0234H706.45V74.3906H706.88V76.3099C707.105 75.979 707.469 75.7606 707.972 75.7606C708.667 75.7606 709.071 76.2173 709.071 76.9519V79.0234H708.64V77.0446C708.64 76.4489 708.382 76.1643 707.853 76.1643C707.27 76.1643 706.88 76.6078 706.88 77.3358V79.0234Z" fill="white"/>
<path opacity="0.5" d="M404.834 114.404H404.011V114.087C404.567 114.087 404.823 113.775 404.823 113.343H405.203V117.314H404.834V114.404Z" fill="white"/>
<path opacity="0.5" d="M406.074 155.133H403.39V154.849C403.39 153.329 405.705 153.567 405.705 152.319C405.705 151.775 405.336 151.428 404.763 151.428C403.992 151.428 403.782 151.95 403.782 152.387C403.782 152.495 403.793 152.597 403.816 152.688L403.402 152.659C403.39 152.58 403.379 152.495 403.379 152.404C403.379 151.803 403.708 151.077 404.763 151.077C405.552 151.077 406.074 151.582 406.074 152.313C406.074 153.811 403.884 153.63 403.788 154.781H406.074V155.133Z" fill="white"/>
<path opacity="0.5" d="M403.307 191.71L403.704 191.659C403.699 191.698 403.699 191.738 403.699 191.772C403.699 192.294 404.022 192.686 404.674 192.686C405.344 192.686 405.775 192.322 405.775 191.778C405.775 191.228 405.344 190.955 404.703 190.955H404.317V190.609L404.674 190.604C405.264 190.604 405.554 190.309 405.554 189.9C405.554 189.497 405.236 189.253 404.686 189.253C404.141 189.253 403.84 189.577 403.852 190.053L403.472 189.997C403.472 189.39 403.937 188.896 404.686 188.896C405.52 188.896 405.922 189.356 405.922 189.883C405.922 190.241 405.763 190.558 405.446 190.757C405.917 190.955 406.149 191.341 406.149 191.778C406.149 192.43 405.656 193.037 404.674 193.037C403.727 193.037 403.279 192.413 403.307 191.71Z" fill="white"/>
<path opacity="0.5" d="M405.198 229.846H403.287V229.517L405.227 226.8H405.567V229.5H406.191V229.846H405.567V230.771H405.198V229.846ZM405.198 227.418L403.701 229.5H405.198V227.418Z" fill="white"/>
<path opacity="0.5" d="M403.281 267.244L403.644 267.182C403.616 267.823 404.002 268.322 404.733 268.322C405.374 268.322 405.76 267.919 405.76 267.295C405.76 266.7 405.369 266.314 404.779 266.314C404.177 266.314 403.973 266.62 403.848 266.774L403.519 266.654L403.729 264.618H405.936V264.97H404.058L403.922 266.274C404.058 266.167 404.308 265.968 404.801 265.968C405.596 265.968 406.129 266.507 406.129 267.295C406.129 268.124 405.584 268.674 404.733 268.674C403.769 268.674 403.247 268.022 403.281 267.244Z" fill="white"/>
<path opacity="0.5" d="M403.265 304.617C403.265 303.147 403.826 302.353 404.785 302.353C405.556 302.353 406.101 302.892 406.101 303.618L405.715 303.675C405.744 303.119 405.363 302.705 404.785 302.705C404.127 302.705 403.701 303.249 403.645 304.356C403.883 303.998 404.297 303.766 404.79 303.766C405.545 303.766 406.146 304.361 406.146 305.121C406.146 305.899 405.517 306.494 404.734 306.494C403.9 306.494 403.265 305.893 403.265 304.617ZM403.724 305.121C403.724 305.66 404.127 306.137 404.734 306.143C405.324 306.143 405.778 305.694 405.778 305.121C405.778 304.548 405.346 304.106 404.751 304.106C404.178 304.106 403.724 304.531 403.724 305.121Z" fill="white"/>
<path opacity="0.5" d="M405.619 340.607H403.35V340.256H406.124V340.607C405.449 341.26 404.701 342.695 404.559 344.227H404.173C404.315 342.774 404.984 341.356 405.619 340.607Z" fill="white"/>
<path opacity="0.5" d="M403.272 380.924C403.272 380.453 403.561 380.073 404.02 379.886C403.686 379.715 403.482 379.415 403.482 379.046C403.482 378.422 404.003 377.991 404.741 377.991C405.484 377.991 406.012 378.422 406.012 379.046C406.012 379.42 405.802 379.715 405.461 379.886C405.915 380.078 406.204 380.453 406.204 380.924C406.204 381.65 405.603 382.132 404.741 382.132C403.867 382.132 403.272 381.655 403.272 380.924ZM403.85 379.046C403.85 379.454 404.202 379.727 404.741 379.727C405.285 379.727 405.643 379.454 405.643 379.046C405.643 378.62 405.28 378.331 404.741 378.331C404.208 378.331 403.85 378.615 403.85 379.046ZM403.646 380.924C403.646 381.446 404.072 381.786 404.741 381.786C405.399 381.786 405.824 381.446 405.824 380.924C405.824 380.419 405.388 380.061 404.741 380.061C404.089 380.061 403.646 380.419 403.646 380.924Z" fill="white"/>
<mask id="mask0_1796_636" style="mask-type:alpha" maskUnits="userSpaceOnUse" x="410" y="349" width="37" height="36">
<rect x="410.983" y="349.743" width="35.9942" height="35.256" fill="#F6F6F6"/>
<rect x="411.45" y="350.209" width="35.0619" height="34.3236" stroke="white" stroke-opacity="0.7" stroke-width="0.932376"/>
</mask>
<g mask="url(#mask0_1796_636)">
<ellipse cx="428.981" cy="367.371" rx="1.05865" ry="1.03694" stroke="white" stroke-width="0.932376"/>
<ellipse cx="428.98" cy="367.372" rx="8.46923" ry="8.01273" stroke="white" stroke-width="1.86475"/>
<ellipse cx="428.451" cy="367.904" rx="15.3505" ry="14.9571" stroke="white" stroke-width="2.79713"/>
<ellipse cx="428.982" cy="367.372" rx="23.834" ry="23.3452" stroke="white" stroke-width="2.79713"/>
</g>
<path fill-rule="evenodd" clip-rule="evenodd" d="M628.62 355.169H624.08V360.186H621.771V355.169H612.691V360.186H609.885V355.169H605.345V360.186H605.345V364.726H610.989L610.989 374.464H607.015V379.004H626.878V374.464H623.146V364.726H628.612V360.844H628.62V355.169Z" fill="#AFE8C2"/>
<path d="M624.08 355.169V354.601C623.767 354.601 623.513 354.856 623.513 355.169H624.08ZM628.62 355.169H629.188C629.188 354.856 628.934 354.601 628.62 354.601V355.169ZM624.08 360.186V360.753C624.394 360.753 624.648 360.499 624.648 360.186H624.08ZM621.771 360.186H621.204C621.204 360.499 621.458 360.753 621.771 360.753V360.186ZM621.771 355.169H622.339C622.339 354.856 622.085 354.601 621.771 354.601V355.169ZM612.691 355.169V354.601C612.378 354.601 612.124 354.856 612.124 355.169H612.691ZM612.691 360.186V360.753C613.005 360.753 613.259 360.499 613.259 360.186H612.691ZM609.885 360.186H609.317C609.317 360.499 609.571 360.753 609.885 360.753V360.186ZM609.885 355.169H610.452C610.452 354.856 610.198 354.602 609.885 354.602V355.169ZM605.345 355.169V354.602C605.031 354.602 604.777 354.856 604.777 355.169H605.345ZM605.345 360.186V360.753C605.658 360.753 605.912 360.499 605.912 360.186H605.345ZM605.345 360.186V359.618C605.031 359.618 604.777 359.872 604.777 360.186H605.345ZM605.345 364.726H604.777C604.777 365.039 605.031 365.293 605.345 365.293V364.726ZM610.989 364.726L611.557 364.726C611.557 364.412 611.303 364.158 610.989 364.158V364.726ZM610.989 374.464V375.031C611.14 375.031 611.284 374.971 611.39 374.865C611.497 374.758 611.557 374.614 611.557 374.464L610.989 374.464ZM607.015 374.464V373.896C606.702 373.896 606.448 374.15 606.448 374.464H607.015ZM607.015 379.004H606.448C606.448 379.317 606.702 379.571 607.015 379.571V379.004ZM626.878 379.004V379.571C627.191 379.571 627.446 379.317 627.446 379.004H626.878ZM626.878 374.464H627.446C627.446 374.15 627.191 373.896 626.878 373.896V374.464ZM623.146 374.464H622.578C622.578 374.777 622.832 375.031 623.146 375.031V374.464ZM623.146 364.726V364.158C622.832 364.158 622.578 364.412 622.578 364.726H623.146ZM628.612 364.726V365.293C628.926 365.293 629.18 365.039 629.18 364.726H628.612ZM628.612 360.844V360.276C628.299 360.276 628.045 360.531 628.045 360.844H628.612ZM628.62 360.844V361.411C628.934 361.411 629.188 361.157 629.188 360.844H628.62ZM624.08 355.736H628.62V354.601H624.08V355.736ZM624.648 360.186V355.169H623.513V360.186H624.648ZM621.771 360.753H624.08V359.618H621.771V360.753ZM621.204 355.169V360.186H622.339V355.169H621.204ZM612.691 355.736H621.771V354.601H612.691V355.736ZM613.259 360.186V355.169H612.124V360.186H613.259ZM609.885 360.753H612.691V359.618H609.885V360.753ZM609.317 355.169V360.186H610.452V355.169H609.317ZM605.345 355.737H609.885V354.602H605.345V355.737ZM605.912 360.186V355.169H604.777V360.186H605.912ZM605.345 360.753H605.345V359.618H605.345V360.753ZM605.912 364.726V360.186H604.777V364.726H605.912ZM610.989 364.158H605.345V365.293H610.989V364.158ZM610.422 364.726L610.422 374.464L611.557 374.464L611.557 364.726L610.422 364.726ZM610.989 373.896H607.015V375.031H610.989V373.896ZM606.448 374.464V379.004H607.583V374.464H606.448ZM607.015 379.571H626.878V378.436H607.015V379.571ZM627.446 379.004V374.464H626.311V379.004H627.446ZM626.878 373.896H623.146V375.031H626.878V373.896ZM623.713 374.464V364.726H622.578V374.464H623.713ZM628.612 364.158H623.146V365.293H628.612V364.158ZM628.045 360.844V364.726H629.18V360.844H628.045ZM628.62 360.276H628.612V361.411H628.62V360.276ZM628.053 355.169V360.844H629.188V355.169H628.053Z" fill="#005E2C"/>
<path d="M615.528 369.356C615.528 368.416 616.291 367.653 617.231 367.653C618.171 367.653 618.933 368.416 618.933 369.356V374.463H615.528V369.356Z" fill="#005E2C"/>
<path d="M607.582 377.301L626.31 377.301" stroke="#3DD771" stroke-width="2.27"/>
<path d="M613.824 360.276L613.824 355.736" stroke="white" stroke-width="1.135"/>
<path d="M625.175 360.276L625.175 355.736" stroke="white" stroke-width="1.135"/>
<path d="M606.447 360.276L606.447 355.736" stroke="white" stroke-width="1.135"/>
<g style="mix-blend-mode:screen" filter="url(#filter1_i_1796_636)">
<path d="M424.631 339.413H433.219L430.959 353.877H426.439L424.631 339.413Z" fill="white"/>
</g>
<g style="mix-blend-mode:screen" filter="url(#filter2_i_1796_636)">
<path d="M424.631 397.269H433.219L430.959 382.805H426.439L424.631 397.269Z" fill="white"/>
</g>
<g style="mix-blend-mode:screen" filter="url(#filter3_i_1796_636)">
<path d="M458.079 373.312V364.724L443.615 366.984V371.504L458.079 373.312Z" fill="white"/>
</g>
<g style="mix-blend-mode:screen" filter="url(#filter4_i_1796_636)">
<path d="M399.318 373.312V364.724L413.782 366.984V371.504L399.318 373.312Z" fill="white"/>
</g>
<g style="mix-blend-mode:screen" filter="url(#filter5_i_1796_636)">
<path d="M445.501 344.445L451.77 350.315L440.234 359.329L436.935 356.239L445.501 344.445Z" fill="white"/>
</g>
<g style="mix-blend-mode:screen" filter="url(#filter6_i_1796_636)">
<path d="M405.958 386.678L412.227 392.547L420.463 380.444L417.164 377.355L405.958 386.678Z" fill="white"/>
</g>
<g style="mix-blend-mode:screen" filter="url(#filter7_i_1796_636)">
<path d="M446.747 392.052L452.617 385.783L440.514 377.547L437.424 380.846L446.747 392.052Z" fill="white"/>
</g>
<g style="mix-blend-mode:screen" filter="url(#filter8_i_1796_636)">
<path d="M403.854 351.891L409.723 345.622L418.737 357.157L415.648 360.457L403.854 351.891Z" fill="white"/>
</g>
<g style="mix-blend-mode:screen" filter="url(#filter9_i_1796_636)">
<path d="M424.631 339.413H433.219L430.959 353.877H426.439L424.631 339.413Z" fill="white"/>
</g>
<g style="mix-blend-mode:screen" filter="url(#filter10_i_1796_636)">
<path d="M424.631 397.269H433.219L430.959 382.805H426.439L424.631 397.269Z" fill="white"/>
</g>
<g style="mix-blend-mode:screen" filter="url(#filter11_i_1796_636)">
<path d="M458.079 373.312V364.724L443.615 366.984V371.504L458.079 373.312Z" fill="white"/>
</g>
<g style="mix-blend-mode:screen" filter="url(#filter12_i_1796_636)">
<path d="M399.318 373.312V364.724L413.782 366.984V371.504L399.318 373.312Z" fill="white"/>
</g>
<g style="mix-blend-mode:screen" filter="url(#filter13_i_1796_636)">
<path d="M445.501 344.445L451.77 350.315L440.234 359.329L436.935 356.239L445.501 344.445Z" fill="white"/>
</g>
<g style="mix-blend-mode:screen" filter="url(#filter14_i_1796_636)">
<path d="M405.958 386.678L412.227 392.547L420.463 380.444L417.164 377.355L405.958 386.678Z" fill="white"/>
</g>
<g style="mix-blend-mode:screen" filter="url(#filter15_i_1796_636)">
<path d="M446.747 392.052L452.617 385.783L440.514 377.547L437.424 380.846L446.747 392.052Z" fill="white"/>
</g>
<g style="mix-blend-mode:screen" filter="url(#filter16_i_1796_636)">
<path d="M403.854 351.891L409.723 345.622L418.737 357.157L415.648 360.457L403.854 351.891Z" fill="white"/>
</g>
<mask id="mask1_1796_636" style="mask-type:alpha" maskUnits="userSpaceOnUse" x="410" y="349" width="37" height="36">
<rect x="410.984" y="349.744" width="35.9942" height="35.256" fill="#F6F6F6"/>
<rect x="411.451" y="350.21" width="35.0619" height="34.3236" stroke="white" stroke-opacity="0.7" stroke-width="0.932376"/>
</mask>
<g mask="url(#mask1_1796_636)">
<ellipse cx="428.982" cy="367.372" rx="1.05865" ry="1.03694" stroke="#FCF4E4" stroke-width="3.616"/>
<ellipse cx="428.981" cy="367.373" rx="8.46923" ry="8.01273" stroke="#FCF4E4" stroke-width="4.52"/>
<ellipse cx="428.452" cy="367.905" rx="15.3505" ry="14.9571" stroke="#FCF4E4" stroke-width="5.424"/>
<ellipse cx="428.983" cy="367.373" rx="23.834" ry="23.3452" stroke="#FCF4E4" stroke-width="2.79713"/>
</g>
<g style="mix-blend-mode:screen" filter="url(#filter17_f_1796_636)">
<ellipse cx="428.982" cy="367.372" rx="1.05865" ry="1.03694" stroke="#FCF4E4" stroke-width="3.616"/>
</g>
<g style="mix-blend-mode:screen" filter="url(#filter18_f_1796_636)">
<ellipse cx="428.981" cy="367.373" rx="8.46923" ry="8.01273" stroke="#FCF4E4" stroke-width="4.52"/>
</g>
<g style="mix-blend-mode:screen" filter="url(#filter19_f_1796_636)">
<ellipse cx="428.452" cy="367.906" rx="15.3505" ry="14.9571" stroke="#FCF4E4" stroke-width="5.424"/>
</g>
<rect x="452.568" y="354.265" width="26.216" height="26.216" rx="4.52" stroke="url(#paint0_linear_1796_636)" stroke-width="0.904"/>
<rect x="491.439" y="354.265" width="26.216" height="26.216" rx="4.52" stroke="url(#paint1_linear_1796_636)" stroke-width="0.904"/>
<rect x="528.504" y="354.265" width="26.216" height="26.216" rx="4.52" stroke="url(#paint2_linear_1796_636)" stroke-width="0.904"/>
<rect x="567.376" y="354.265" width="26.216" height="26.216" rx="4.52" stroke="url(#paint3_linear_1796_636)" stroke-width="0.904"/>
</g>
<mask id="mask2_1796_636" style="mask-type:alpha" maskUnits="userSpaceOnUse" x="67" y="111" width="241" height="240">
<rect x="67.5" y="111" width="240" height="240" rx="120" fill="black"/>
</mask>
<g mask="url(#mask2_1796_636)">
<path d="M96.3891 297.757V262.757H112.289C119.139 262.757 123.589 267.307 123.589 273.757C123.589 278.457 121.289 282.157 117.339 283.857L123.989 297.807H116.389L110.339 284.807H103.389V297.757H96.3891ZM103.389 278.107H111.789C114.739 278.107 116.589 276.557 116.589 273.757C116.589 271.007 114.739 269.457 111.789 269.457H103.389V278.107ZM127.14 280.357C127.14 270.107 134.49 262.007 145.19 262.007C155.79 262.007 163.09 270.107 163.09 280.357C163.09 290.557 155.79 298.507 145.19 298.507C134.49 298.507 127.14 290.557 127.14 280.357ZM134.14 280.357C134.14 286.957 138.64 291.807 145.14 291.807C151.54 291.807 156.09 287.007 156.09 280.357C156.09 273.657 151.54 268.707 145.14 268.707C138.74 268.707 134.14 273.657 134.14 280.357ZM167.379 280.357C167.379 270.107 174.729 262.007 185.429 262.007C196.029 262.007 203.329 270.107 203.329 280.357C203.329 290.557 196.029 298.507 185.429 298.507C174.729 298.507 167.379 290.557 167.379 280.357ZM174.379 280.357C174.379 286.957 178.879 291.807 185.379 291.807C191.779 291.807 196.329 287.007 196.329 280.357C196.329 273.657 191.779 268.707 185.379 268.707C178.979 268.707 174.379 273.657 174.379 280.357ZM208.267 297.807V262.757H215.117V276.607L229.417 262.757H239.017L223.167 278.057L238.667 297.807H229.767L218.067 282.907L215.117 285.807V297.807H208.267ZM240.906 276.757L241.556 274.007C241.806 274.057 242.056 274.057 242.356 274.057C244.356 274.057 245.906 272.807 246.506 270.607C246.106 270.707 245.706 270.757 245.306 270.757C242.806 270.757 240.906 268.907 240.906 266.557C240.906 264.257 242.806 262.357 245.306 262.357C248.056 262.357 249.856 264.457 249.856 267.557C249.856 272.757 246.956 276.857 242.306 276.857C241.856 276.857 241.406 276.857 240.906 276.757ZM251.403 286.507L257.903 284.107C259.003 289.107 262.053 291.807 266.403 291.807C270.753 291.807 273.203 289.907 273.203 287.057C273.203 284.857 271.053 283.357 265.603 282.807C257.453 282.007 253.253 278.407 253.253 271.907C253.253 266.057 258.603 262.007 265.953 262.007C272.603 262.007 277.703 265.907 279.153 271.807L272.553 274.557C271.653 271.007 269.103 268.757 265.953 268.757C262.553 268.757 260.253 270.107 260.253 272.057C260.253 274.157 261.603 275.357 266.403 275.857C275.303 276.757 280.203 280.107 280.203 286.857C280.203 293.757 274.803 298.507 266.403 298.507C258.403 298.507 252.903 293.907 251.403 286.507ZM120.806 334.757V302.557H128.58L139.114 327.351L149.648 302.557H157.422V334.757H150.982V314.747L142.472 334.757H135.756L127.292 314.885L127.246 334.757H120.806ZM162.014 318.749C162.014 309.319 168.776 301.867 178.62 301.867C188.372 301.867 195.088 309.319 195.088 318.749C195.088 328.133 188.372 335.447 178.62 335.447C168.776 335.447 162.014 328.133 162.014 318.749ZM168.454 318.749C168.454 324.821 172.594 329.283 178.574 329.283C184.462 329.283 188.648 324.867 188.648 318.749C188.648 312.585 184.462 308.031 178.574 308.031C172.686 308.031 168.454 312.585 168.454 318.749ZM195.881 302.557H202.965L212.211 326.891L221.457 302.557H228.633L216.213 334.757H208.255L195.881 302.557ZM231.892 334.757V302.557H254.938V308.721H238.332V315.207H253.052V321.371H238.332V328.593H254.938V334.757H231.892Z" fill="white"/>
<path fill-rule="evenodd" clip-rule="evenodd" d="M225.532 157.995H243.506V169.786H243.509V196.469H225.514V231.335H243.053V245.011H200.835V231.335H200.837V177.224H200.983V169.786H225.532V157.995Z" fill="black"/>
<path d="M243.506 157.995V157.495H244.006V157.995H243.506ZM225.532 157.995H225.032V157.495H225.532V157.995ZM243.506 169.786V170.286H243.006V169.786H243.506ZM243.509 169.786V169.286H244.009V169.786H243.509ZM243.509 196.469H244.009V196.969H243.509V196.469ZM225.514 196.469H225.014V195.969H225.514V196.469ZM225.514 231.335V231.835H225.014V231.335H225.514ZM243.053 231.335V230.835H243.553V231.335H243.053ZM243.053 245.011H243.553V245.511H243.053V245.011ZM200.835 245.011V245.511H200.335V245.011H200.835ZM200.835 231.335H200.335V230.835H200.835V231.335ZM200.837 231.335H201.337V231.835H200.837V231.335ZM200.837 177.224H200.337V176.724H200.837V177.224ZM200.983 177.224H201.483V177.724H200.983V177.224ZM200.983 169.786H200.483V169.286H200.983V169.786ZM225.532 169.786H226.032V170.286H225.532V169.786ZM243.506 158.495H225.532V157.495H243.506V158.495ZM243.006 169.786V157.995H244.006V169.786H243.006ZM243.506 169.286H243.509V170.286H243.506V169.286ZM244.009 169.786V196.469H243.009V169.786H244.009ZM243.509 196.969H225.514V195.969H243.509V196.969ZM226.014 196.469V231.335H225.014V196.469H226.014ZM225.514 230.835H243.053V231.835H225.514V230.835ZM243.553 231.335V245.011H242.553V231.335H243.553ZM243.053 245.511H200.835V244.511H243.053V245.511ZM200.335 245.011V231.335H201.335V245.011H200.335ZM200.835 230.835H200.837V231.835H200.835V230.835ZM200.337 231.335V177.224H201.337V231.335H200.337ZM200.837 176.724H200.983V177.724H200.837V176.724ZM200.483 177.224V169.786H201.483V177.224H200.483ZM200.983 169.286H225.532V170.286H200.983V169.286ZM226.032 157.995V169.786H225.032V157.995H226.032Z" fill="white"/>
<path fill-rule="evenodd" clip-rule="evenodd" d="M218.524 157.977H236.506V169.768H236.507V196.457H218.506V231.317H236.045V244.993H193.827V231.317H193.829V177.206H193.975V169.768H218.524V157.977Z" fill="black"/>
<path d="M236.506 157.977V157.477H237.006V157.977H236.506ZM218.524 157.977H218.024V157.477H218.524V157.977ZM236.506 169.768V170.268H236.006V169.768H236.506ZM236.507 169.768V169.268H237.007V169.768H236.507ZM236.507 196.457H237.007V196.957H236.507V196.457ZM218.506 196.457H218.006V195.957H218.506V196.457ZM218.506 231.317V231.817H218.006V231.317H218.506ZM236.045 231.317V230.817H236.545V231.317H236.045ZM236.045 244.993H236.545V245.493H236.045V244.993ZM193.827 244.993V245.493H193.327V244.993H193.827ZM193.827 231.317H193.327V230.817H193.827V231.317ZM193.829 231.317H194.329V231.817H193.829V231.317ZM193.829 177.206H193.329V176.706H193.829V177.206ZM193.975 177.206H194.475V177.706H193.975V177.206ZM193.975 169.768H193.475V169.268H193.975V169.768ZM218.524 169.768H219.024V170.268H218.524V169.768ZM236.506 158.477H218.524V157.477H236.506V158.477ZM236.006 169.768V157.977H237.006V169.768H236.006ZM236.506 169.268H236.507V170.268H236.506V169.268ZM237.007 169.768V196.457H236.007V169.768H237.007ZM236.507 196.957H218.506V195.957H236.507V196.957ZM219.006 196.457V231.317H218.006V196.457H219.006ZM218.506 230.817H236.045V231.817H218.506V230.817ZM236.545 231.317V244.993H235.545V231.317H236.545ZM236.045 245.493H193.827V244.493H236.045V245.493ZM193.327 244.993V231.317H194.327V244.993H193.327ZM193.827 230.817H193.829V231.817H193.827V230.817ZM193.329 231.317V177.206H194.329V231.317H193.329ZM193.829 176.706H193.975V177.706H193.829V176.706ZM193.475 177.206V169.768H194.475V177.206H193.475ZM193.975 169.268H218.524V170.268H193.975V169.268ZM219.024 157.977V169.768H218.024V157.977H219.024Z" fill="white"/>
<path fill-rule="evenodd" clip-rule="evenodd" d="M149.36 157.995H131.387V169.786H131.384V196.469H149.379V231.335H131.84V245.011H174.058V231.335H174.056V177.224H173.909V169.786H149.36V157.995Z" fill="black"/>
<path d="M131.387 157.995V157.495H130.887V157.995H131.387ZM149.36 157.995H149.86V157.495H149.36V157.995ZM131.387 169.786V170.286H131.887V169.786H131.387ZM131.384 169.786V169.286H130.884V169.786H131.384ZM131.384 196.469H130.884V196.969H131.384V196.469ZM149.379 196.469H149.879V195.969H149.379V196.469ZM149.379 231.335V231.835H149.879V231.335H149.379ZM131.84 231.335V230.835H131.34V231.335H131.84ZM131.84 245.011H131.34V245.511H131.84V245.011ZM174.058 245.011V245.511H174.558V245.011H174.058ZM174.058 231.335H174.558V230.835H174.058V231.335ZM174.056 231.335H173.556V231.835H174.056V231.335ZM174.056 177.224H174.556V176.724H174.056V177.224ZM173.909 177.224H173.409V177.724H173.909V177.224ZM173.909 169.786H174.409V169.286H173.909V169.786ZM149.36 169.786H148.86V170.286H149.36V169.786ZM131.387 158.495H149.36V157.495H131.387V158.495ZM131.887 169.786V157.995H130.887V169.786H131.887ZM131.387 169.286H131.384V170.286H131.387V169.286ZM130.884 169.786V196.469H131.884V169.786H130.884ZM131.384 196.969H149.379V195.969H131.384V196.969ZM148.879 196.469V231.335H149.879V196.469H148.879ZM149.379 230.835H131.84V231.835H149.379V230.835ZM131.34 231.335V245.011H132.34V231.335H131.34ZM131.84 245.511H174.058V244.511H131.84V245.511ZM174.558 245.011V231.335H173.558V245.011H174.558ZM174.058 230.835H174.056V231.835H174.058V230.835ZM174.556 231.335V177.224H173.556V231.335H174.556ZM174.056 176.724H173.909V177.724H174.056V176.724ZM174.409 177.224V169.786H173.409V177.224H174.409ZM173.909 169.286H149.36V170.286H173.909V169.286ZM148.86 157.995V169.786H149.86V157.995H148.86Z" fill="white"/>
<path fill-rule="evenodd" clip-rule="evenodd" d="M156.368 157.977H138.387V169.768H138.386V196.457H156.387V231.317H138.848V244.993H181.066V231.317H181.064V177.206H180.917V169.768H156.368V157.977Z" fill="black"/>
<path d="M138.387 157.977V157.477H137.887V157.977H138.387ZM156.368 157.977H156.868V157.477H156.368V157.977ZM138.387 169.768V170.268H138.887V169.768H138.387ZM138.386 169.768V169.268H137.886V169.768H138.386ZM138.386 196.457H137.886V196.957H138.386V196.457ZM156.387 196.457H156.887V195.957H156.387V196.457ZM156.387 231.317V231.817H156.887V231.317H156.387ZM138.848 231.317V230.817H138.348V231.317H138.848ZM138.848 244.993H138.348V245.493H138.848V244.993ZM181.066 244.993V245.493H181.566V244.993H181.066ZM181.066 231.317H181.566V230.817H181.066V231.317ZM181.064 231.317H180.564V231.817H181.064V231.317ZM181.064 177.206H181.564V176.706H181.064V177.206ZM180.917 177.206H180.417V177.706H180.917V177.206ZM180.917 169.768H181.417V169.268H180.917V169.768ZM156.368 169.768H155.868V170.268H156.368V169.768ZM138.387 158.477H156.368V157.477H138.387V158.477ZM138.887 169.768V157.977H137.887V169.768H138.887ZM138.387 169.268H138.386V170.268H138.387V169.268ZM137.886 169.768V196.457H138.886V169.768H137.886ZM138.386 196.957H156.387V195.957H138.386V196.957ZM155.887 196.457V231.317H156.887V196.457H155.887ZM156.387 230.817H138.848V231.817H156.387V230.817ZM138.348 231.317V244.993H139.348V231.317H138.348ZM138.848 245.493H181.066V244.493H138.848V245.493ZM181.566 244.993V231.317H180.566V244.993H181.566ZM181.066 230.817H181.064V231.817H181.066V230.817ZM181.564 231.317V177.206H180.564V231.317H181.564ZM181.064 176.706H180.917V177.706H181.064V176.706ZM181.417 177.206V169.768H180.417V177.206H181.417ZM180.917 169.268H156.368V170.268H180.917V169.268ZM155.868 157.977V169.768H156.868V157.977H155.868Z" fill="white"/>
<path fill-rule="evenodd" clip-rule="evenodd" d="M201.5 157.971H173.5V170.005H163.451V157.997H145.451V170.005V183.983V196.471H163.574V231.462H145.451V245.009H229.451V231.462H211.461V196.471H229.451V170.005H229.448V158H211.448V170.005H201.5V157.971Z" fill="#149A53"/>
<path d="M173.5 157.971V157.471H173V157.971H173.5ZM201.5 157.971H202V157.471H201.5V157.971ZM173.5 170.005V170.505H174V170.005H173.5ZM163.451 170.005H162.951V170.505H163.451V170.005ZM163.451 157.997H163.951V157.497H163.451V157.997ZM145.451 157.997V157.497H144.951V157.997H145.451ZM145.451 196.471H144.951V196.971H145.451V196.471ZM163.574 196.471H164.074V195.971H163.574V196.471ZM163.574 231.462V231.962H164.074V231.462H163.574ZM145.451 231.462V230.962H144.951V231.462H145.451ZM145.451 245.009H144.951V245.509H145.451V245.009ZM229.451 245.009V245.509H229.951V245.009H229.451ZM229.451 231.462H229.951V230.962H229.451V231.462ZM211.461 231.462H210.961V231.962H211.461V231.462ZM211.461 196.471V195.971H210.961V196.471H211.461ZM229.451 196.471V196.971H229.951V196.471H229.451ZM229.451 170.005H229.951V169.505H229.451V170.005ZM229.448 170.005H228.948V170.505H229.448V170.005ZM229.448 158H229.948V157.5H229.448V158ZM211.448 158V157.5H210.948V158H211.448ZM211.448 170.005V170.505H211.948V170.005H211.448ZM201.5 170.005H201V170.505H201.5V170.005ZM173.5 158.471H201.5V157.471H173.5V158.471ZM174 170.005V157.971H173V170.005H174ZM163.451 170.505H173.5V169.505H163.451V170.505ZM162.951 157.997V170.005H163.951V157.997H162.951ZM145.451 158.497H163.451V157.497H145.451V158.497ZM145.951 170.005V157.997H144.951V170.005H145.951ZM145.951 183.983V170.005H144.951V183.983H145.951ZM145.951 196.471V183.983H144.951V196.471H145.951ZM163.574 195.971H145.451V196.971H163.574V195.971ZM164.074 231.462V196.471H163.074V231.462H164.074ZM145.451 231.962H163.574V230.962H145.451V231.962ZM145.951 245.009V231.462H144.951V245.009H145.951ZM229.451 244.509H145.451V245.509H229.451V244.509ZM228.951 231.462V245.009H229.951V231.462H228.951ZM211.461 231.962H229.451V230.962H211.461V231.962ZM210.961 196.471V231.462H211.961V196.471H210.961ZM229.451 195.971H211.461V196.971H229.451V195.971ZM228.951 170.005V196.471H229.951V170.005H228.951ZM229.448 170.505H229.451V169.505H229.448V170.505ZM228.948 158V170.005H229.948V158H228.948ZM211.448 158.5H229.448V157.5H211.448V158.5ZM211.948 170.005V158H210.948V170.005H211.948ZM201.5 170.505H211.448V169.505H201.5V170.505ZM201 157.971V170.005H202V157.971H201Z" fill="white"/>
<path d="M180.071 219.341C180.071 215.154 183.466 211.76 187.653 211.76C191.84 211.76 195.234 215.154 195.234 219.341V231.563H180.071V219.341Z" fill="#005E2C" stroke="white" stroke-width="1.5"/>
<g opacity="0.2">
<path d="M64.7773 196.503L307.531 196.503" stroke="white" stroke-width="0.5"/>
<path d="M65.7852 211.757L308.539 211.757" stroke="white" stroke-width="0.5"/>
<path d="M65.6006 231.504L308.206 231.504" stroke="white" stroke-width="0.5"/>
<path d="M66.0674 244.994L308.97 244.994" stroke="white" stroke-width="0.5"/>
<path d="M64.1484 157.996L306.902 157.996" stroke="white" stroke-width="0.5"/>
<path d="M65.5176 170.024L308.42 170.024" stroke="white" stroke-width="0.5"/>
<path d="M145.503 108.101L145.503 363.193" stroke="white" stroke-width="0.5"/>
<path d="M211.489 108.158L211.489 363.251" stroke="white" stroke-width="0.5"/>
<path d="M229.525 108.999L229.525 364.091" stroke="white" stroke-width="0.5"/>
<path d="M163.489 108.158L163.489 363.251" stroke="white" stroke-width="0.5"/>
<path d="M201.487 108.512L201.487 363.604" stroke="white" stroke-width="0.5"/>
<path d="M173.499 106.959L173.499 362.051" stroke="white" stroke-width="0.5"/>
<path d="M187.5 108.09L187.5 360.209" stroke="white" stroke-width="0.5"/>
</g>
</g>
<rect x="67.5" y="111" width="240" height="240" rx="120" stroke="white"/>
</g>
<defs>
<filter id="filter0_d_1796_636" x="634.961" y="83.4795" width="41.1276" height="41.1276" filterUnits="userSpaceOnUse" color-interpolation-filters="sRGB">
<feFlood flood-opacity="0" result="BackgroundImageFix"/>
<feColorMatrix in="SourceAlpha" type="matrix" values="0 0 0 0 0 0 0 0 0 0 0 0 0 0 0 0 0 0 127 0" result="hardAlpha"/>
<feOffset dy="1.89094"/>
<feGaussianBlur stdDeviation="0.945468"/>
<feComposite in2="hardAlpha" operator="out"/>
<feColorMatrix type="matrix" values="0 0 0 0 0 0 0 0 0 0 0 0 0 0 0 0 0 0 0.25 0"/>
<feBlend mode="normal" in2="BackgroundImageFix" result="effect1_dropShadow_1796_636"/>
<feBlend mode="normal" in="SourceGraphic" in2="effect1_dropShadow_1796_636" result="shape"/>
</filter>
<filter id="filter1_i_1796_636" x="424.631" y="339.413" width="8.58789" height="22.5999" filterUnits="userSpaceOnUse" color-interpolation-filters="sRGB">
<feFlood flood-opacity="0" result="BackgroundImageFix"/>
<feBlend mode="normal" in="SourceGraphic" in2="BackgroundImageFix" result="shape"/>
<feColorMatrix in="SourceAlpha" type="matrix" values="0 0 0 0 0 0 0 0 0 0 0 0 0 0 0 0 0 0 127 0" result="hardAlpha"/>
<feOffset dy="8.136"/>
<feGaussianBlur stdDeviation="5.424"/>
<feComposite in2="hardAlpha" operator="arithmetic" k2="-1" k3="1"/>
<feColorMatrix type="matrix" values="0 0 0 0 0 0 0 0 0 0 0 0 0 0 0 0 0 0 1 0"/>
<feBlend mode="normal" in2="shape" result="effect1_innerShadow_1796_636"/>
</filter>
<filter id="filter2_i_1796_636" x="424.631" y="374.669" width="8.58789" height="22.5999" filterUnits="userSpaceOnUse" color-interpolation-filters="sRGB">
<feFlood flood-opacity="0" result="BackgroundImageFix"/>
<feBlend mode="normal" in="SourceGraphic" in2="BackgroundImageFix" result="shape"/>
<feColorMatrix in="SourceAlpha" type="matrix" values="0 0 0 0 0 0 0 0 0 0 0 0 0 0 0 0 0 0 127 0" result="hardAlpha"/>
<feOffset dy="-8.136"/>
<feGaussianBlur stdDeviation="5.424"/>
<feComposite in2="hardAlpha" operator="arithmetic" k2="-1" k3="1"/>
<feColorMatrix type="matrix" values="0 0 0 0 0 0 0 0 0 0 0 0 0 0 0 0 0 0 1 0"/>
<feBlend mode="normal" in2="shape" result="effect1_innerShadow_1796_636"/>
</filter>
<filter id="filter3_i_1796_636" x="434.575" y="364.725" width="23.5039" height="8.58789" filterUnits="userSpaceOnUse" color-interpolation-filters="sRGB">
<feFlood flood-opacity="0" result="BackgroundImageFix"/>
<feBlend mode="normal" in="SourceGraphic" in2="BackgroundImageFix" result="shape"/>
<feColorMatrix in="SourceAlpha" type="matrix" values="0 0 0 0 0 0 0 0 0 0 0 0 0 0 0 0 0 0 127 0" result="hardAlpha"/>
<feOffset dx="-9.04"/>
<feGaussianBlur stdDeviation="5.424"/>
<feComposite in2="hardAlpha" operator="arithmetic" k2="-1" k3="1"/>
<feColorMatrix type="matrix" values="0 0 0 0 0 0 0 0 0 0 0 0 0 0 0 0 0 0 1 0"/>
<feBlend mode="normal" in2="shape" result="effect1_innerShadow_1796_636"/>
</filter>
<filter id="filter4_i_1796_636" x="399.318" y="364.725" width="22.5999" height="8.58789" filterUnits="userSpaceOnUse" color-interpolation-filters="sRGB">
<feFlood flood-opacity="0" result="BackgroundImageFix"/>
<feBlend mode="normal" in="SourceGraphic" in2="BackgroundImageFix" result="shape"/>
<feColorMatrix in="SourceAlpha" type="matrix" values="0 0 0 0 0 0 0 0 0 0 0 0 0 0 0 0 0 0 127 0" result="hardAlpha"/>
<feOffset dx="8.136"/>
<feGaussianBlur stdDeviation="5.424"/>
<feComposite in2="hardAlpha" operator="arithmetic" k2="-1" k3="1"/>
<feColorMatrix type="matrix" values="0 0 0 0 0 0 0 0 0 0 0 0 0 0 0 0 0 0 1 0"/>
<feBlend mode="normal" in2="shape" result="effect1_innerShadow_1796_636"/>
</filter>
<filter id="filter5_i_1796_636" x="436.935" y="344.445" width="14.835" height="23.0198" filterUnits="userSpaceOnUse" color-interpolation-filters="sRGB">
<feFlood flood-opacity="0" result="BackgroundImageFix"/>
<feBlend mode="normal" in="SourceGraphic" in2="BackgroundImageFix" result="shape"/>
<feColorMatrix in="SourceAlpha" type="matrix" values="0 0 0 0 0 0 0 0 0 0 0 0 0 0 0 0 0 0 127 0" result="hardAlpha"/>
<feOffset dy="8.136"/>
<feGaussianBlur stdDeviation="5.424"/>
<feComposite in2="hardAlpha" operator="arithmetic" k2="-1" k3="1"/>
<feColorMatrix type="matrix" values="0 0 0 0 0 0 0 0 0 0 0 0 0 0 0 0 0 0 1 0"/>
<feBlend mode="normal" in2="shape" result="effect1_innerShadow_1796_636"/>
</filter>
<filter id="filter6_i_1796_636" x="405.958" y="369.219" width="14.5049" height="23.3284" filterUnits="userSpaceOnUse" color-interpolation-filters="sRGB">
<feFlood flood-opacity="0" result="BackgroundImageFix"/>
<feBlend mode="normal" in="SourceGraphic" in2="BackgroundImageFix" result="shape"/>
<feColorMatrix in="SourceAlpha" type="matrix" values="0 0 0 0 0 0 0 0 0 0 0 0 0 0 0 0 0 0 127 0" result="hardAlpha"/>
<feOffset dy="-8.136"/>
<feGaussianBlur stdDeviation="5.424"/>
<feComposite in2="hardAlpha" operator="arithmetic" k2="-1" k3="1"/>
<feColorMatrix type="matrix" values="0 0 0 0 0 0 0 0 0 0 0 0 0 0 0 0 0 0 1 0"/>
<feBlend mode="normal" in2="shape" result="effect1_innerShadow_1796_636"/>
</filter>
<filter id="filter7_i_1796_636" x="428.385" y="377.547" width="24.2324" height="14.5049" filterUnits="userSpaceOnUse" color-interpolation-filters="sRGB">
<feFlood flood-opacity="0" result="BackgroundImageFix"/>
<feBlend mode="normal" in="SourceGraphic" in2="BackgroundImageFix" result="shape"/>
<feColorMatrix in="SourceAlpha" type="matrix" values="0 0 0 0 0 0 0 0 0 0 0 0 0 0 0 0 0 0 127 0" result="hardAlpha"/>
<feOffset dx="-9.04"/>
<feGaussianBlur stdDeviation="5.424"/>
<feComposite in2="hardAlpha" operator="arithmetic" k2="-1" k3="1"/>
<feColorMatrix type="matrix" values="0 0 0 0 0 0 0 0 0 0 0 0 0 0 0 0 0 0 1 0"/>
<feBlend mode="normal" in2="shape" result="effect1_innerShadow_1796_636"/>
</filter>
<filter id="filter8_i_1796_636" x="403.854" y="345.622" width="23.0198" height="14.835" filterUnits="userSpaceOnUse" color-interpolation-filters="sRGB">
<feFlood flood-opacity="0" result="BackgroundImageFix"/>
<feBlend mode="normal" in="SourceGraphic" in2="BackgroundImageFix" result="shape"/>
<feColorMatrix in="SourceAlpha" type="matrix" values="0 0 0 0 0 0 0 0 0 0 0 0 0 0 0 0 0 0 127 0" result="hardAlpha"/>
<feOffset dx="8.136"/>
<feGaussianBlur stdDeviation="5.424"/>
<feComposite in2="hardAlpha" operator="arithmetic" k2="-1" k3="1"/>
<feColorMatrix type="matrix" values="0 0 0 0 0 0 0 0 0 0 0 0 0 0 0 0 0 0 1 0"/>
<feBlend mode="normal" in2="shape" result="effect1_innerShadow_1796_636"/>
</filter>
<filter id="filter9_i_1796_636" x="424.631" y="339.413" width="8.58789" height="22.5999" filterUnits="userSpaceOnUse" color-interpolation-filters="sRGB">
<feFlood flood-opacity="0" result="BackgroundImageFix"/>
<feBlend mode="normal" in="SourceGraphic" in2="BackgroundImageFix" result="shape"/>
<feColorMatrix in="SourceAlpha" type="matrix" values="0 0 0 0 0 0 0 0 0 0 0 0 0 0 0 0 0 0 127 0" result="hardAlpha"/>
<feOffset dy="8.136"/>
<feGaussianBlur stdDeviation="5.424"/>
<feComposite in2="hardAlpha" operator="arithmetic" k2="-1" k3="1"/>
<feColorMatrix type="matrix" values="0 0 0 0 0 0 0 0 0 0 0 0 0 0 0 0 0 0 1 0"/>
<feBlend mode="normal" in2="shape" result="effect1_innerShadow_1796_636"/>
</filter>
<filter id="filter10_i_1796_636" x="424.631" y="374.669" width="8.58789" height="22.5999" filterUnits="userSpaceOnUse" color-interpolation-filters="sRGB">
<feFlood flood-opacity="0" result="BackgroundImageFix"/>
<feBlend mode="normal" in="SourceGraphic" in2="BackgroundImageFix" result="shape"/>
<feColorMatrix in="SourceAlpha" type="matrix" values="0 0 0 0 0 0 0 0 0 0 0 0 0 0 0 0 0 0 127 0" result="hardAlpha"/>
<feOffset dy="-8.136"/>
<feGaussianBlur stdDeviation="5.424"/>
<feComposite in2="hardAlpha" operator="arithmetic" k2="-1" k3="1"/>
<feColorMatrix type="matrix" values="0 0 0 0 0 0 0 0 0 0 0 0 0 0 0 0 0 0 1 0"/>
<feBlend mode="normal" in2="shape" result="effect1_innerShadow_1796_636"/>
</filter>
<filter id="filter11_i_1796_636" x="434.575" y="364.725" width="23.5039" height="8.58789" filterUnits="userSpaceOnUse" color-interpolation-filters="sRGB">
<feFlood flood-opacity="0" result="BackgroundImageFix"/>
<feBlend mode="normal" in="SourceGraphic" in2="BackgroundImageFix" result="shape"/>
<feColorMatrix in="SourceAlpha" type="matrix" values="0 0 0 0 0 0 0 0 0 0 0 0 0 0 0 0 0 0 127 0" result="hardAlpha"/>
<feOffset dx="-9.04"/>
<feGaussianBlur stdDeviation="5.424"/>
<feComposite in2="hardAlpha" operator="arithmetic" k2="-1" k3="1"/>
<feColorMatrix type="matrix" values="0 0 0 0 0 0 0 0 0 0 0 0 0 0 0 0 0 0 1 0"/>
<feBlend mode="normal" in2="shape" result="effect1_innerShadow_1796_636"/>
</filter>
<filter id="filter12_i_1796_636" x="399.318" y="364.725" width="22.5999" height="8.58789" filterUnits="userSpaceOnUse" color-interpolation-filters="sRGB">
<feFlood flood-opacity="0" result="BackgroundImageFix"/>
<feBlend mode="normal" in="SourceGraphic" in2="BackgroundImageFix" result="shape"/>
<feColorMatrix in="SourceAlpha" type="matrix" values="0 0 0 0 0 0 0 0 0 0 0 0 0 0 0 0 0 0 127 0" result="hardAlpha"/>
<feOffset dx="8.136"/>
<feGaussianBlur stdDeviation="5.424"/>
<feComposite in2="hardAlpha" operator="arithmetic" k2="-1" k3="1"/>
<feColorMatrix type="matrix" values="0 0 0 0 0 0 0 0 0 0 0 0 0 0 0 0 0 0 1 0"/>
<feBlend mode="normal" in2="shape" result="effect1_innerShadow_1796_636"/>
</filter>
<filter id="filter13_i_1796_636" x="436.935" y="344.445" width="14.835" height="23.0198" filterUnits="userSpaceOnUse" color-interpolation-filters="sRGB">
<feFlood flood-opacity="0" result="BackgroundImageFix"/>
<feBlend mode="normal" in="SourceGraphic" in2="BackgroundImageFix" result="shape"/>
<feColorMatrix in="SourceAlpha" type="matrix" values="0 0 0 0 0 0 0 0 0 0 0 0 0 0 0 0 0 0 127 0" result="hardAlpha"/>
<feOffset dy="8.136"/>
<feGaussianBlur stdDeviation="5.424"/>
<feComposite in2="hardAlpha" operator="arithmetic" k2="-1" k3="1"/>
<feColorMatrix type="matrix" values="0 0 0 0 0 0 0 0 0 0 0 0 0 0 0 0 0 0 1 0"/>
<feBlend mode="normal" in2="shape" result="effect1_innerShadow_1796_636"/>
</filter>
<filter id="filter14_i_1796_636" x="405.958" y="369.219" width="14.5049" height="23.3284" filterUnits="userSpaceOnUse" color-interpolation-filters="sRGB">
<feFlood flood-opacity="0" result="BackgroundImageFix"/>
<feBlend mode="normal" in="SourceGraphic" in2="BackgroundImageFix" result="shape"/>
<feColorMatrix in="SourceAlpha" type="matrix" values="0 0 0 0 0 0 0 0 0 0 0 0 0 0 0 0 0 0 127 0" result="hardAlpha"/>
<feOffset dy="-8.136"/>
<feGaussianBlur stdDeviation="5.424"/>
<feComposite in2="hardAlpha" operator="arithmetic" k2="-1" k3="1"/>
<feColorMatrix type="matrix" values="0 0 0 0 0 0 0 0 0 0 0 0 0 0 0 0 0 0 1 0"/>
<feBlend mode="normal" in2="shape" result="effect1_innerShadow_1796_636"/>
</filter>
<filter id="filter15_i_1796_636" x="428.385" y="377.547" width="24.2324" height="14.5049" filterUnits="userSpaceOnUse" color-interpolation-filters="sRGB">
<feFlood flood-opacity="0" result="BackgroundImageFix"/>
<feBlend mode="normal" in="SourceGraphic" in2="BackgroundImageFix" result="shape"/>
<feColorMatrix in="SourceAlpha" type="matrix" values="0 0 0 0 0 0 0 0 0 0 0 0 0 0 0 0 0 0 127 0" result="hardAlpha"/>
<feOffset dx="-9.04"/>
<feGaussianBlur stdDeviation="5.424"/>
<feComposite in2="hardAlpha" operator="arithmetic" k2="-1" k3="1"/>
<feColorMatrix type="matrix" values="0 0 0 0 0 0 0 0 0 0 0 0 0 0 0 0 0 0 1 0"/>
<feBlend mode="normal" in2="shape" result="effect1_innerShadow_1796_636"/>
</filter>
<filter id="filter16_i_1796_636" x="403.854" y="345.622" width="23.0198" height="14.835" filterUnits="userSpaceOnUse" color-interpolation-filters="sRGB">
<feFlood flood-opacity="0" result="BackgroundImageFix"/>
<feBlend mode="normal" in="SourceGraphic" in2="BackgroundImageFix" result="shape"/>
<feColorMatrix in="SourceAlpha" type="matrix" values="0 0 0 0 0 0 0 0 0 0 0 0 0 0 0 0 0 0 127 0" result="hardAlpha"/>
<feOffset dx="8.136"/>
<feGaussianBlur stdDeviation="5.424"/>
<feComposite in2="hardAlpha" operator="arithmetic" k2="-1" k3="1"/>
<feColorMatrix type="matrix" values="0 0 0 0 0 0 0 0 0 0 0 0 0 0 0 0 0 0 1 0"/>
<feBlend mode="normal" in2="shape" result="effect1_innerShadow_1796_636"/>
</filter>
<filter id="filter17_f_1796_636" x="420.692" y="359.103" width="16.5814" height="16.5375" filterUnits="userSpaceOnUse" color-interpolation-filters="sRGB">
<feFlood flood-opacity="0" result="BackgroundImageFix"/>
<feBlend mode="normal" in="SourceGraphic" in2="BackgroundImageFix" result="shape"/>
<feGaussianBlur stdDeviation="2.712" result="effect1_foregroundBlur_1796_636"/>
</filter>
<filter id="filter18_f_1796_636" x="412.828" y="351.677" width="32.306" height="31.3929" filterUnits="userSpaceOnUse" color-interpolation-filters="sRGB">
<feFlood flood-opacity="0" result="BackgroundImageFix"/>
<feBlend mode="normal" in="SourceGraphic" in2="BackgroundImageFix" result="shape"/>
<feGaussianBlur stdDeviation="2.712" result="effect1_foregroundBlur_1796_636"/>
</filter>
<filter id="filter19_f_1796_636" x="404.966" y="344.813" width="46.973" height="46.1859" filterUnits="userSpaceOnUse" color-interpolation-filters="sRGB">
<feFlood flood-opacity="0" result="BackgroundImageFix"/>
<feBlend mode="normal" in="SourceGraphic" in2="BackgroundImageFix" result="shape"/>
<feGaussianBlur stdDeviation="2.712" result="effect1_foregroundBlur_1796_636"/>
</filter>
<linearGradient id="paint0_linear_1796_636" x1="452.568" y1="354.265" x2="478.785" y2="380.481" gradientUnits="userSpaceOnUse">
<stop stop-color="#ABABAB"/>
<stop offset="1" stop-color="#ADADAD" stop-opacity="0"/>
</linearGradient>
<linearGradient id="paint1_linear_1796_636" x1="491.439" y1="354.265" x2="517.656" y2="380.481" gradientUnits="userSpaceOnUse">
<stop stop-color="#ABABAB"/>
<stop offset="1" stop-color="#ADADAD" stop-opacity="0"/>
</linearGradient>
<linearGradient id="paint2_linear_1796_636" x1="528.504" y1="354.265" x2="554.72" y2="380.481" gradientUnits="userSpaceOnUse">
<stop stop-color="#ABABAB"/>
<stop offset="1" stop-color="#ADADAD" stop-opacity="0"/>
</linearGradient>
<linearGradient id="paint3_linear_1796_636" x1="567.376" y1="354.265" x2="593.592" y2="380.481" gradientUnits="userSpaceOnUse">
<stop stop-color="#ABABAB"/>
<stop offset="1" stop-color="#ADADAD" stop-opacity="0"/>
</linearGradient>
<clipPath id="clip0_1796_636">
<rect width="731" height="467" fill="white"/>
</clipPath>
<clipPath id="clip1_1796_636">
<rect width="339" height="602.968" fill="white" transform="translate(392 -67)"/>
</clipPath>
</defs>
</svg>
